<?xml version="1.0" standalone="no"?>
<svg version="1.0" xmlns="http://www.w3.org/2000/svg"
 width="100%" height="auto" viewBox="0 0 6761.000000 1850.000000"
 preserveAspectRatio="xMidYMid meet">
<g transform="translate(0.000000,1850.000000) scale(0.100000,-0.100000)"
fill="#1976D2" stroke="none">
<path d="M810 9240 l0 -8450 3245 0 3245 0 0 3255 0 3255 5298 3 c5810 3 5446
0 6162 62 465 41 1049 151 1545 292 l300 86 280 139 c248 124 287 147 345 202
36 33 114 107 173 164 l109 102 54 193 54 192 0 3821 0 3821 -34 117 c-32 109
-40 124 -118 230 -72 99 -101 128 -215 219 -179 145 -368 240 -678 344 -531
178 -1428 318 -2390 375 l-370 22 -8502 3 -8503 3 0 -8450z m14310 3260 l0
-3360 -3910 0 -3910 0 0 3360 0 3360 3910 0 3910 0 0 -3360z"/>
<path d="M23530 9240 l0 -8450 3250 0 3250 0 0 7535 0 7535 4110 0 4110 0 0
-2700 0 -2700 -2623 0 -2622 0 -555 -337 c-305 -185 -557 -337 -559 -339 -12
-10 86 -146 691 -950 86 -115 1470 -1972 3075 -4126 l2918 -3917 3654 -1 3653
0 -34 43 c-264 325 -6258 7789 -6258 7792 0 3 291 5 648 5 747 0 1072 10 1477
45 580 49 1113 135 1547 249 449 118 464 124 773 282 l280 143 162 163 c150
151 163 167 173 213 6 28 31 114 55 191 l45 142 0 3113 0 3114 -54 178 -54
178 -176 170 -176 170 -297 146 c-164 79 -325 153 -358 164 -341 106 -454 137
-670 183 -373 81 -1028 160 -1595 193 -249 15 -1103 17 -9057 20 l-8783 3 0
-8450z"/>
<path d="M46260 16775 l0 -915 3515 0 3515 0 0 -7535 0 -7535 3245 0 3245 0 0
7535 0 7535 3520 0 3520 0 0 915 0 915 -10280 0 -10280 0 0 -915z"/>
</g>
</svg>
